<svg width="42" height="36" viewBox="0 0 42 36" fill="none" xmlns="http://www.w3.org/2000/svg">
<path d="M15.006 6.00001C15.006 4.4103 15.6375 2.88571 16.7616 1.76161C17.8857 0.637521 19.4103 0.00601196 21 0.00601196C22.5897 0.00601196 24.1143 0.637521 25.2384 1.76161C26.3625 2.88571 26.994 4.4103 26.994 6.00001C26.994 7.58972 26.3625 9.11432 25.2384 10.2384C24.1143 11.3625 22.5897 11.994 21 11.994C19.4103 11.994 17.8857 11.3625 16.7616 10.2384C15.6375 9.11432 15.006 7.58972 15.006 6.00001ZM21 3.00601C20.6068 3.00601 20.2175 3.08345 19.8542 3.23392C19.491 3.38438 19.1609 3.60492 18.8829 3.88293C18.6049 4.16095 18.3844 4.49101 18.2339 4.85426C18.0834 5.21751 18.006 5.60683 18.006 6.00001C18.006 6.39319 18.0834 6.78252 18.2339 7.14577C18.3844 7.50901 18.6049 7.83907 18.8829 8.11709C19.1609 8.39511 19.491 8.61564 19.8542 8.76611C20.2175 8.91657 20.6068 8.99401 21 8.99401C21.7941 8.99401 22.5556 8.67857 23.1171 8.11709C23.6786 7.55561 23.994 6.79407 23.994 6.00001C23.994 5.20595 23.6786 4.44442 23.1171 3.88293C22.5556 3.32145 21.7941 3.00601 21 3.00601ZM30 7.50001C30 6.90906 30.1164 6.3239 30.3425 5.77794C30.5687 5.23197 30.9002 4.7359 31.318 4.31803C31.7359 3.90017 32.232 3.5687 32.7779 3.34255C33.3239 3.11641 33.909 3.00001 34.5 3.00001C35.091 3.00001 35.6761 3.11641 36.2221 3.34255C36.768 3.5687 37.2641 3.90017 37.682 4.31803C38.0998 4.7359 38.4313 5.23197 38.6575 5.77794C38.8836 6.3239 39 6.90906 39 7.50001C39 8.69349 38.5259 9.83808 37.682 10.682C36.8381 11.5259 35.6935 12 34.5 12C33.3065 12 32.1619 11.5259 31.318 10.682C30.4741 9.83808 30 8.69349 30 7.50001ZM34.5 6.00001C34.1022 6.00001 33.7206 6.15805 33.4393 6.43935C33.158 6.72066 33 7.10219 33 7.50001C33 7.89784 33.158 8.27937 33.4393 8.56067C33.7206 8.84198 34.1022 9.00001 34.5 9.00001C34.8978 9.00001 35.2794 8.84198 35.5607 8.56067C35.842 8.27937 36 7.89784 36 7.50001C36 7.10219 35.842 6.72066 35.5607 6.43935C35.2794 6.15805 34.8978 6.00001 34.5 6.00001ZM7.5 3.00001C6.30653 3.00001 5.16193 3.47412 4.31802 4.31803C3.47411 5.16194 3 6.30654 3 7.50001C3 8.69349 3.47411 9.83808 4.31802 10.682C5.16193 11.5259 6.30653 12 7.5 12C8.69347 12 9.83807 11.5259 10.682 10.682C11.5259 9.83808 12 8.69349 12 7.50001C12 6.30654 11.5259 5.16194 10.682 4.31803C9.83807 3.47412 8.69347 3.00001 7.5 3.00001ZM6 7.50001C6 7.10219 6.15804 6.72066 6.43934 6.43935C6.72065 6.15805 7.10218 6.00001 7.5 6.00001C7.89783 6.00001 8.27936 6.15805 8.56066 6.43935C8.84196 6.72066 9 7.10219 9 7.50001C9 7.89784 8.84196 8.27937 8.56066 8.56067C8.27936 8.84198 7.89783 9.00001 7.5 9.00001C7.10218 9.00001 6.72065 8.84198 6.43934 8.56067C6.15804 8.27937 6 7.89784 6 7.50001ZM9.804 15C9.27734 15.9121 9.00005 16.9468 9 18H3V25.5C2.99976 26.2462 3.18509 26.9808 3.5393 27.6376C3.89352 28.2943 4.4055 28.8527 5.02917 29.2625C5.65283 29.6722 6.36859 29.9204 7.11203 29.9847C7.85546 30.0491 8.60322 29.9275 9.288 29.631C9.51 30.624 9.858 31.572 10.308 32.457C9.16939 32.9167 7.93533 33.0899 6.71417 32.9612C5.49301 32.8326 4.32212 32.406 3.30433 31.7191C2.28653 31.0322 1.45296 30.1059 0.876819 29.0215C0.300678 27.9372 -0.000408143 26.7279 4.1524e-07 25.5V18C4.1524e-07 17.2044 0.316071 16.4413 0.87868 15.8787C1.44129 15.3161 2.20435 15 3 15H9.804ZM31.692 32.457C32.8306 32.9167 34.0647 33.0899 35.2858 32.9612C36.507 32.8326 37.6779 32.406 38.6957 31.7191C39.7135 31.0322 40.547 30.1059 41.1232 29.0215C41.6993 27.9372 42.0004 26.7279 42 25.5V18C42 17.2044 41.6839 16.4413 41.1213 15.8787C40.5587 15.3161 39.7957 15 39 15H32.196C32.706 15.882 33 16.905 33 18H39V25.5C39.0002 26.2462 38.8149 26.9808 38.4607 27.6376C38.1065 28.2943 37.5945 28.8527 36.9708 29.2625C36.3472 29.6722 35.6314 29.9204 34.888 29.9847C34.1445 30.0491 33.3968 29.9275 32.712 29.631C32.484 30.627 32.144 31.569 31.692 32.457ZM15 14.997C14.2044 14.997 13.4413 15.3131 12.8787 15.8757C12.3161 16.4383 12 17.2014 12 17.997V27C12 29.387 12.9482 31.6761 14.636 33.364C16.3239 35.0518 18.6131 36 21 36C23.3869 36 25.6761 35.0518 27.364 33.364C29.0518 31.6761 30 29.387 30 27V18C30 17.2044 29.6839 16.4413 29.1213 15.8787C28.5587 15.3161 27.7956 15 27 15L15 14.997ZM15 17.997H27V27C27 28.5913 26.3679 30.1174 25.2426 31.2427C24.1174 32.3679 22.5913 33 21 33C19.4087 33 17.8826 32.3679 16.7574 31.2427C15.6321 30.1174 15 28.5913 15 27V17.997Z" fill="white"/>
</svg>
