<svg width="100" height="100" viewBox="0 0 100 100" fill="none" xmlns="http://www.w3.org/2000/svg">
<path d="M45 75H55V45H45V75ZM50 35C51.4167 35 52.605 34.52 53.565 33.56C54.525 32.6 55.0033 31.4133 55 30C54.9967 28.5867 54.5167 27.4 53.56 26.44C52.6033 25.48 51.4167 25 50 25C48.5833 25 47.3967 25.48 46.44 26.44C45.4833 27.4 45.0033 28.5867 45 30C44.9967 31.4133 45.4767 32.6017 46.44 33.565C47.4033 34.5283 48.59 35.0067 50 35ZM50 100C43.0833 100 36.5834 98.6867 30.5 96.06C24.4167 93.4333 19.125 89.8717 14.625 85.375C10.125 80.8783 6.56334 75.5867 3.94001 69.5C1.31667 63.4133 0.00333966 56.9133 6.32911e-06 50C-0.003327 43.0867 1.31001 36.5867 3.94001 30.5C6.57001 24.4133 10.1317 19.1217 14.625 14.625C19.1183 10.1283 24.41 6.56667 30.5 3.94C36.59 1.31333 43.09 0 50 0C56.91 0 63.41 1.31333 69.5 3.94C75.59 6.56667 80.8817 10.1283 85.375 14.625C89.8684 19.1217 93.4317 24.4133 96.065 30.5C98.6984 36.5867 100.01 43.0867 100 50C99.99 56.9133 98.6767 63.4133 96.06 69.5C93.4434 75.5867 89.8817 80.8783 85.375 85.375C80.8684 89.8717 75.5767 93.435 69.5 96.065C63.4233 98.695 56.9233 100.007 50 100ZM50 90C61.1667 90 70.625 86.125 78.375 78.375C86.125 70.625 90 61.1667 90 50C90 38.8333 86.125 29.375 78.375 21.625C70.625 13.875 61.1667 10 50 10C38.8333 10 29.375 13.875 21.625 21.625C13.875 29.375 10 38.8333 10 50C10 61.1667 13.875 70.625 21.625 78.375C29.375 86.125 38.8333 90 50 90Z" fill="black"/>
</svg>
