<svg width="216" height="144" viewBox="0 0 216 144" fill="none" xmlns="http://www.w3.org/2000/svg">
<path d="M12.6666 143.5C9.29026 143.5 6.46204 142.356 4.18198 140.068C1.90193 137.78 0.757925 134.952 0.74998 131.583C0.742036 128.215 1.88604 125.387 4.18198 123.099C6.47793 120.811 9.30615 119.667 12.6666 119.667H203.333C206.71 119.667 209.542 120.811 211.83 123.099C214.118 125.387 215.258 128.215 215.25 131.583C215.242 134.952 214.098 137.784 211.818 140.08C209.538 142.376 206.71 143.516 203.333 143.5H12.6666ZM12.6666 83.9167C9.29026 83.9167 6.46204 82.7727 4.18198 80.4847C1.90193 78.1967 0.757925 75.3684 0.74998 72C0.742036 68.6316 1.88604 65.8033 4.18198 63.5153C6.47793 61.2273 9.30615 60.0833 12.6666 60.0833H203.333C206.71 60.0833 209.542 61.2273 211.83 63.5153C214.118 65.8033 215.258 68.6316 215.25 72C215.242 75.3684 214.098 78.2006 211.818 80.4966C209.538 82.7925 206.71 83.9326 203.333 83.9167H12.6666ZM12.6666 24.3333C9.29026 24.3333 6.46204 23.1893 4.18198 20.9013C1.90193 18.6133 0.757925 15.7851 0.74998 12.4167C0.742036 9.04822 1.88604 6.22 4.18198 3.932C6.47793 1.644 9.30615 0.5 12.6666 0.5H203.333C206.71 0.5 209.542 1.644 211.83 3.932C214.118 6.22 215.258 9.04822 215.25 12.4167C215.242 15.7851 214.098 18.6173 211.818 20.9132C209.538 23.2092 206.71 24.3492 203.333 24.3333H12.6666Z" fill="white"/>
</svg>
