<svg width="94" height="94" viewBox="0 0 94 94" fill="none" xmlns="http://www.w3.org/2000/svg">
<path d="M83.5859 69.0195C80.6526 66.084 77.2253 63.6881 73.4609 61.9414C78.7695 57.6406 82.1562 51.0781 82.1562 43.7188C82.1562 30.7344 71.3281 20.082 58.3437 20.2813C45.5586 20.4805 35.2578 30.8984 35.2578 43.7188C35.2578 51.0781 38.6562 57.6406 43.9531 61.9414C40.188 63.6868 36.7605 66.0829 33.8281 69.0195C27.4297 75.4297 23.7969 83.8906 23.5625 92.9141C23.5594 93.0391 23.5813 93.1636 23.627 93.28C23.6727 93.3965 23.7413 93.5026 23.8287 93.5922C23.916 93.6817 24.0204 93.7529 24.1357 93.8015C24.251 93.85 24.3749 93.875 24.5 93.875H31.0625C31.5664 93.875 31.9883 93.4766 32 92.9727C32.2226 86.1758 34.9766 79.8125 39.8164 74.9844C42.293 72.4946 45.2389 70.5207 48.4835 69.177C51.7281 67.8333 55.2069 67.1465 58.7187 67.1562C65.8555 67.1563 72.5703 69.9336 77.6211 74.9844C82.4492 79.8125 85.2031 86.1758 85.4375 92.9727C85.4492 93.4766 85.8711 93.875 86.375 93.875H92.9375C93.0626 93.875 93.1865 93.85 93.3018 93.8015C93.4171 93.7529 93.5215 93.6817 93.6088 93.5922C93.6962 93.5026 93.7648 93.3965 93.8105 93.28C93.8562 93.1636 93.8781 93.0391 93.875 92.9141C93.6406 83.8906 90.0078 75.4297 83.5859 69.0195ZM58.7187 58.7188C54.7109 58.7188 50.9375 57.1602 48.1133 54.3242C46.6959 52.918 45.5763 51.2408 44.8213 49.3925C44.0663 47.5442 43.6913 45.5628 43.7187 43.5664C43.7539 39.7227 45.2891 36.0078 47.9726 33.2539C50.7851 30.3711 54.5469 28.7656 58.5664 28.7188C62.5391 28.6836 66.3945 30.2305 69.2305 33.0078C72.1367 35.8555 73.7305 39.6641 73.7305 43.7188C73.7305 47.7266 72.1719 51.4883 69.3359 54.3242C67.9446 55.7222 66.2898 56.8304 64.4674 57.5847C62.645 58.3391 60.6911 58.7245 58.7187 58.7188ZM29.3633 46.8125C29.2578 45.793 29.1992 44.7617 29.1992 43.7188C29.1992 41.8555 29.375 40.0391 29.7031 38.2695C29.7851 37.8477 29.5625 37.4141 29.1758 37.2383C27.582 36.5234 26.1172 35.5391 24.8516 34.2969C23.3602 32.8509 22.1867 31.1099 21.4058 29.185C20.625 27.2601 20.2539 25.1935 20.3164 23.1172C20.4219 19.3555 21.9336 15.7813 24.5703 13.0859C27.4648 10.1211 31.3555 8.50391 35.4922 8.55078C39.2305 8.58594 42.8398 10.0273 45.5703 12.582C46.4961 13.4492 47.293 14.4102 47.9609 15.4414C48.1953 15.8047 48.6523 15.957 49.0508 15.8164C51.1133 15.1016 53.293 14.5977 55.5312 14.3633C56.1875 14.293 56.5625 13.5898 56.2695 13.0039C52.4609 5.46875 44.6797 0.265628 35.6797 0.125003C22.6836 -0.0742157 11.8555 10.5781 11.8555 23.5508C11.8555 30.9102 15.2422 37.4727 20.5508 41.7734C16.8242 43.4961 13.3906 45.875 10.4141 48.8516C3.99218 55.2617 0.359363 63.7227 0.124988 72.7578C0.12186 72.8829 0.143798 73.0073 0.189509 73.1238C0.235221 73.2402 0.30378 73.3464 0.391149 73.4359C0.478517 73.5255 0.582927 73.5966 0.698225 73.6452C0.813523 73.6938 0.937376 73.7188 1.06249 73.7188H7.63671C8.14061 73.7188 8.56249 73.3203 8.57421 72.8164C8.79686 66.0195 11.5508 59.6563 16.3906 54.8281C19.8359 51.3828 24.0547 48.9922 28.6601 47.832C29.1172 47.7148 29.4219 47.2813 29.3633 46.8125Z" fill="white"/>
</svg>
